<?xml version="1.0" encoding="UTF-8" standalone="no"?>
<!-- Created with Inkscape (http://www.inkscape.org/) -->
<svg id="svg2" xmlns:rdf="http://www.w3.org/1999/02/22-rdf-syntax-ns#" xmlns="http://www.w3.org/2000/svg" height="450" width="680" version="1.0" xmlns:cc="http://creativecommons.org/ns#" xmlns:dc="http://purl.org/dc/elements/1.1/">
 <metadata id="metadata7">
  <rdf:RDF>
   <cc:Work rdf:about="">
    <dc:format>image/svg+xml</dc:format>
    <dc:type rdf:resource="http://purl.org/dc/dcmitype/StillImage"/>
   </cc:Work>
  </rdf:RDF>
 </metadata>
 <g id="layer1" transform="translate(-137.23 -351.9)">
  <g id="g11210" transform="translate(13.016 8.1954)">
   <text id="text2589" xml:space="preserve" transform="scale(1.0431 .95868)" font-size="38.741px" y="388.5376" x="120.1799" font-family="Bitstream Vera Sans" fill="#ddff55"><tspan id="tspan2591" y="388.5376" x="120.1799">9879315 4357621 6066930 2206380</tspan><tspan id="tspan2593" y="436.96368" x="120.1799"> 8999816 6816211 5511779 4153499 </tspan><tspan id="tspan2595" y="485.38974" x="120.1799">5614731 6062856 3219890 7128130</tspan><tspan id="tspan2597" y="533.81586" x="120.1799"> 8612062 6468872 7153833 7995149 </tspan><tspan id="tspan2599" y="582.24188" x="120.1799">4807256 5377339 3163974 4724282</tspan><tspan id="tspan2601" y="630.66797" x="120.1799"> 6067367 5216061 6752894 9103128 </tspan><tspan id="tspan2603" y="679.09406" x="120.1799">9697694 3780912 8189160 6388867</tspan><tspan id="tspan2605" y="727.5202" x="120.1799"> 4668435 5936782 3005027 7366507 </tspan><tspan id="tspan2607" y="775.94629" x="120.1799">3912446 6205979 6292512 8768425</tspan><tspan id="tspan2609" y="824.37238" x="120.1799"> 3094912 6737914 3002537 9216671</tspan></text>
   <g id="g2101" stroke-dashoffset="0pt" transform="translate(75.509 47.73)" stroke="#999" stroke-width="1px" fill="none">
    <path id="path2097" style="color:black" d="m322.32 474.36l45.91-15.25"/>
    <path id="path2099" style="color:black" d="m323.53 480.02l45.91-15.26"/>
   </g>
   <path id="path12320" opacity=".35" style="color:black" d="m148.8 366.01s-101.26 83.21 3.03 71.07c127.75-14.87 471.64-229.36 487.8-255.21 16.15-25.84 25.84-32.3-35.54-25.84s-461.75 209.98-455.29 209.98z" fill-rule="evenodd" transform="translate(124.22 343.7)"/>
   <g id="g7312" stroke-dashoffset="0pt" stroke="#7c7c7c" stroke-width=".3" fill="#a7a6a2">
    <path id="path7287" style="color:black" d="m487.16 448.66c-0.47 0.15-0.98 0.3-1.44 0.44v8.25h1.44v-8.69z"/>
    <path id="path7289" style="color:black" d="m499.53 445.38c-0.47 0.15-0.98 0.3-1.44 0.44v8.25h1.44v-8.69z"/>
    <path id="path7291" style="color:black" d="m511.15 443.11c-0.47 0.14-0.98 0.29-1.44 0.44v8.25h1.44v-8.69z"/>
    <path id="path7293" style="color:black" d="m522.01 441.09c-0.47 0.14-0.98 0.29-1.44 0.44v8.25h1.44v-8.69z"/>
    <path id="path7295" style="color:black" d="m533.88 439.07c-0.48 0.14-0.98 0.29-1.44 0.43v8.25h1.44v-8.68z"/>
    <path id="path7297" style="color:black" d="m544.48 436.29c-0.47 0.14-0.98 0.3-1.44 0.44v8.25h1.44v-8.69z"/>
    <path id="path7299" style="color:black" d="m555.85 434.02c-0.47 0.14-0.98 0.29-1.44 0.43v8.25h1.44v-8.68z"/>
    <path id="path7301" style="color:black" d="m565.19 433.01c-0.47 0.14-0.98 0.29-1.44 0.43v8.25h1.44v-8.68z"/>
    <path id="path7285" style="color:black" d="m565.44 433.01c-0.47 0.14-0.97 0.29-1.44 0.43v8.25h1.44v-8.68z"/>
   </g>
   <path id="path2820" d="m737.91 485.66l-25.25 23.25 6.56 36.87 5.56-2.03 20.22-14.16c9.1-9.94 14.2-24.23 7.56-36.84-4.04-5.56-14.65-7.09-14.65-7.09zm10.62 11.12c-4.19 8.25-2.19 34.47-11.87 30.04-0.51-0.5 2.27-7.32 2.78-10.35 0.5-3.03 9.09-19.69 9.09-19.69z" fill-rule="evenodd" stroke="#000" stroke-width=".5" fill="#611212"/>
   <path id="path2824" d="m740.06 514.14s7.58 1.7 10.61-2.08c3.03-3.79 0.63-7.45-2.65-8.72-3.29-1.26-3.16 0.64-3.16 0.64l-4.8 10.16z" fill-rule="evenodd" stroke="#000" stroke-width=".5" fill="#bebebe"/>
   <path id="path2818" d="m250.52 676.59s39.39 31.82 29.29 40.91-16.16 20.7-10.1 28.79c6.06 8.08 1.01 26.77 89.9-11.12 90.22-38.44 287.9-146.47 287.9-146.47s67.68-39.39 74.75-44.44c7.07-5.06 10.1-47.48 10.1-47.48l-430.32 156.57-51.52 23.24z" fill-rule="evenodd" stroke="#000" stroke-width=".5" fill="#9a0000"/>
   <path id="path2814" d="m192.94 615.98s35.35-27.28 102.02-56.57c66.67-29.3 96.98-40.41 96.98-40.41l37.37 18.18-127.27 56.57-79.81 35.36-29.29-13.13z" fill-rule="evenodd" stroke="#000" stroke-width=".5" fill="#646464"/>
   <path id="path2816" d="m218.19 621.03s71.72-54.55 214.16-102.03c142.43-47.48 291.36-78.18 291.36-78.18s22.6-1.45 40.1 1.87c21.05 3.99 32.19 9.64 25.12 12.67s-79.8 66.67-79.8 66.67l-317.19 105.06-132.33 19.19-41.42-25.25z" fill-rule="evenodd" stroke="#000" stroke-width=".5" fill="#854335"/>
   <path id="path8304" opacity=".47" d="m229.3 622.04s74.76-51.52 191.93-92.94c117.18-41.41 293.23-84.39 310.41-84.39 17.17 0 49.28 5.91 41.19 10.96-8.08 5.05-110.17 71.42-148.56 74.44-38.36 3.03-131.76 54.2-217.18 62.63-33.31 3.29-178.8 29.3-177.79 29.3z" fill-rule="evenodd" fill="#532b22"/>
   <path id="path2812" d="m190.71 617.36s57.15-0.71 159.29-21.43c102.14-20.71 146.43-32.14 146.43-32.14l20 7.86s169.46-52.65 220.98-82.95c51.52-30.31 53.54-35.36 53.54-35.36s-32.33 29.3-42.43 38.39-41.41 41.41-59.6 50.51c-18.18 9.09-225.26 102.02-313.14 120.2-87.89 18.19-123.24 16.17-123.24 16.17l-61.83-61.25z" fill-rule="evenodd" stroke="#000" stroke-width=".5" fill="#bebebe"/>
   <path id="path11052" opacity=".35" style="color:black" d="m340.54 645.22s4.28 7.5 7.5 11.43c3.21 3.93 14.46 4.64 18.39 3.03 3.93-1.6 10.71-3.03 12.68-5.71 1.96-2.68 3.57-8.75 1.25-7.5s-6.43 8.39-14.47 7.5c-8.03-0.89-15.89-3.21-19.1-8.04-3.22-4.82-6.79-5.17-6.79-4.28s0.71 3.57 0.54 3.57z" fill-rule="evenodd"/>
   <path id="path2838" d="m621.75 492.23s14.65-1.01 18.18-7.57c3.54-6.57-2.02-90.92-2.02-90.92s-24.75-4.54-28.28-3.53c-3.54 1.01-23.24 3.53-24.75 7.07-1.52 3.53-18.18 54.04-18.18 54.04l1.01 24.25 54.04 16.66z" fill-rule="evenodd" stroke="#000" stroke-width=".5" fill="#003a74"/>
   <path id="path10089" opacity=".35" style="color:black" d="m612.06 390.06c-0.09 0.16-0.19 0.33-0.28 0.5-3.93 7.86-1.41 11.09-2.12 10.38 0 0-10.64 64.76-7.66 85.18l19.75 6.1s14.65-1 18.19-7.56c3.53-6.57-2.03-90.91-2.03-90.91s-18.6-3.44-25.85-3.69z" fill-rule="evenodd"/>
   <path id="path2832" d="m577.3 454.86l47.48-3.03-1.52 42.93-52.02 18.18h-31.31l-7.07-47.98 44.44-10.1z" fill-rule="evenodd" stroke="#000" stroke-width=".5" fill="#fff"/>
   <path id="path2834" d="m557.1 494.76l39.9-10.1 19.82 5.34-10.22 12.33-57.58 18.69 8.08-26.26z" fill-rule="evenodd" stroke="#000" stroke-width=".5" fill="#65342c"/>
   <path id="path2836" d="m641.16 484l-0.1 0.16s-7.49 5.69-11.78 6.4l-5.55-0.42-14.18 7.25-12.55 22.61 28.28 0.53 27.28-12.65 15.69-17.23-27.09-6.65z" fill-rule="evenodd" stroke="#000" stroke-width=".5" fill="#65342c"/>
   <path id="path2830" d="m566.19 438.69l-85.35 18.69 11.1 16.68 53.03-1.03 80.81-20.69-12.53-2.87c-1.34 0.02-2.69 0.12-3.97 0.41-6.43 1.42-11.43 1.4-27.5-1.82-16.07-3.21-12.5-4.98-12.5-6.4 0-0.17 0.25-0.95 0.66-2.13l-3.75-0.84z" fill-rule="evenodd" stroke="#000" stroke-width=".5" fill="#646464"/>
   <path id="path2840" d="m639.16 414.94c-10.3 4.22-20.13 6.46-35.6 7.59-12.83 0.94-21.4-1.61-26.06-3.69-2.6 7.78-3.76 11.25-5.88 17.63 8.69 2.38 21.82 5.45 32.44 6.78 12.26 1.53 28.81-4.5 36.13-7.5-0.33-7.45-0.68-14.43-1.03-20.81z" fill-rule="evenodd" stroke="#000" stroke-width=".5" fill="#f70406"/>
   <path id="path2842" d="m611.84 390.06c-1.01-0.03-1.77 0.03-2.22 0.16-3.36 0.96-21.4 3.28-24.4 6.56 6.06 1.79 16.05 3.98 26.44 3.03 10.56-0.96 20.09-3.14 26.31-5.12 0-0.05-0.06-0.94-0.06-0.94s-18.96-3.49-26.07-3.69z" fill-rule="evenodd" stroke="#000" stroke-width=".5" fill="#1a344f"/>
   <path id="path9199" opacity=".35" d="m610.91 393.03c-0.93-0.01-1.62 0.06-2.03 0.22-2.45 0.94-11.79 3.56-17.38 5.13 5.7 1.21 12.82 2.1 20.16 1.43 7.74-0.7 14.92-2.07 20.65-3.53-4.42-0.91-16.11-3.19-21.4-3.25z" fill-rule="evenodd"/>
   <path id="path2828" d="m432.85 449.3l1.01 80.81s0 9.09 39.9 21.72 48.49 12.63 59.1 11.11c10.6-1.51 134.35-51.51 134.35-51.51l1.01-20.21-53.04 20.21 1.52-21.22-53.03 16.16-0.69-27.86-15.39 3.66-1.1-11.66-102.53-19.69-11.11-1.52z" fill-rule="evenodd" stroke="#000" stroke-width=".5" fill="#fff"/>
   <path id="path2826" d="m443.69 443.45l103.31 27.57s-11.61 10.26-45.45 0.66c-33.84-9.59-64.63-15.07-68.17-20.63-3.53-5.55 9.81-7.1 10.31-7.6z" fill-rule="evenodd" stroke="#000" stroke-width=".5" fill="#646464"/>
   <path id="path3758" d="m729.19 523.47c-25.07 18.9-73.31 49.48-165.53 94.53-155.1 75.76-263.64 83.86-287.07 84.72 4.41 6.11 6.61 11.73 3.22 14.78-10.1 9.09-16.15 20.7-10.09 28.78s1.01 26.79 89.9-11.09c90.22-38.45 287.88-146.5 287.88-146.5s67.68-39.39 74.75-44.44c3.03-2.16 5.31-11.18 6.94-20.78z" fill-rule="evenodd" stroke="#000" stroke-width=".6" fill="maroon"/>
   <path id="path4650" opacity=".88" style="color:black" d="m452.14 510.93a3.0357 5 0 1 1 -6.07 0 3.0357 5 0 1 1 6.07 0z" transform="matrix(.84553 -.16140 .16140 .84553 -13.842 150.7)" stroke-dashoffset="0pt" stroke="#000" stroke-width=".69703" fill="#782121"/>
   <path id="path4652" opacity=".88" style="color:black" d="m452.14 510.93a3.0357 5 0 1 1 -6.07 0 3.0357 5 0 1 1 6.07 0z" transform="matrix(.84553 -.16140 .16140 .84553 -5.9846 154.8)" stroke-dashoffset="0pt" stroke="#000" stroke-width=".69703" fill="#782121"/>
   <path id="path4654" opacity=".88" style="color:black" d="m452.14 510.93a3.0357 5 0 1 1 -6.07 0 3.0357 5 0 1 1 6.07 0z" transform="matrix(.84553 -.16140 .16140 .84553 2.7654 158.2)" stroke-dashoffset="0pt" stroke="#000" stroke-width=".69703" fill="#782121"/>
   <path id="path4656" opacity=".88" style="color:black" d="m452.14 510.93a3.0357 5 0 1 1 -6.07 0 3.0357 5 0 1 1 6.07 0z" transform="matrix(.84553 -.16140 .16140 .84553 11.515 161.41)" stroke-dashoffset="0pt" stroke="#000" stroke-width=".69703" fill="#782121"/>
   <path id="path4648" opacity=".88" style="color:black" d="m452.14 510.93a3.0357 5 0 1 1 -6.07 0 3.0357 5 0 1 1 6.07 0z" transform="matrix(.89570 -.17098 .17098 .89570 -5.7328 143.92)" stroke-dashoffset="0pt" stroke="#000" stroke-width=".65799" fill="#782121"/>
   <path id="path4658" d="m436.31 475.81c-0.63-0.14-0.97 6.91-0.97 6.91s3.16 1.46 8.22 3.62v-7.15c-4.5-1.69-6.83-2.74-7.12-3.25-0.05-0.08-0.09-0.12-0.13-0.13zm10.07 4.44l0.15 7.34c2.55 1.07 5.44 2.25 8.63 3.5l0.22-7.75c-3.48-1.17-6.54-2.21-9-3.09zm12.24 4.22l0.13 8.03c3.24 1.24 6.73 2.49 10.34 3.75v-8.37c-3.9-1.27-7.32-2.36-10.47-3.41zm14.47 4.72l-0.43 8.31c3.95 1.33 8.04 2.62 12.18 3.81l0.13-8.43c-1.94-0.55-3.91-1.13-5.88-1.76-2.15-0.68-4.02-1.3-6-1.93zm15.47 4.65v8.5c4.74 1.29 9.5 2.42 14.16 3.32l0.09-8.66c-4.5-0.83-9.3-1.87-14.25-3.16zm20.13 4.16l-0.35 8.62c4.38 0.66 8.62 1.06 12.57 1.1 3.62 0.04 6.58-0.02 9.06-0.16 0.63-1.27 1-2.75 1.09-4.12 0.08-1.19-0.66-2.34-1.53-3.25-4.76-0.25-11.97-0.81-20.84-2.19z" fill-rule="evenodd" stroke="#000" stroke-width=".6" fill="#757575"/>
   <path id="path5654" opacity=".88" style="color:black" d="m608.44 498.62l-2.56 0.91v3.22l2.56-0.91v-3.22z" stroke-dashoffset="0pt" stroke="#000" stroke-width=".6" fill="#782121"/>
   <path id="path5652" opacity=".88" style="color:black" d="m604.12 500.12l-2.37 0.85v3.22l2.37-0.85v-3.22z" stroke-dashoffset="0pt" stroke="#000" stroke-width=".6" fill="#782121"/>
   <path id="path5648" opacity=".88" style="color:black" d="m587.31 506.03l-3.37 1.19v3.22l3.37-1.19v-3.22z" stroke-dashoffset="0pt" stroke="#000" stroke-width=".6" fill="#782121"/>
   <path id="path5644" opacity=".88" style="color:black" d="m574.81 510.41l-3.9 1.37v3.25l3.9-1.37v-3.25z" stroke-dashoffset="0pt" stroke="#000" stroke-width=".6" fill="#782121"/>
   <path id="path5639" opacity=".88" style="color:black" d="m649.66 505l-2.19 0.81v3.22l2.22-0.81v-3.13l-0.03-0.09z" stroke-dashoffset="0pt" stroke="#000" stroke-width=".6" fill="#782121"/>
   <path id="path5637" opacity=".88" style="color:black" d="m645.75 506.47l-2.03 0.75v3.22l2.59-0.97h-0.56v-3z" stroke-dashoffset="0pt" stroke="#000" stroke-width=".6" fill="#782121"/>
   <path id="path5635" opacity=".88" style="color:black" d="m642 507.88l-1.84 0.68v3.22l2.31-0.87h-0.47v-3.03z" stroke-dashoffset="0pt" stroke="#000" stroke-width=".6" fill="#782121"/>
   <path id="path5633" opacity=".88" style="color:black" d="m638.44 509.19l-2.32 0.87h0.1v3.19l2.22-0.81v-3.25z" stroke-dashoffset="0pt" stroke="#000" stroke-width=".6" fill="#782121"/>
   <path id="path5631" opacity=".88" style="color:black" d="m634.5 510.69l-2.22 0.81v3.22l2.22-0.81v-3.22z" stroke-dashoffset="0pt" stroke="#000" stroke-width=".6" fill="#782121"/>
   <path id="path5627" opacity=".88" style="color:black" d="m621.62 515.5l-2.37 0.88v3.24l2.37-0.9v-3.22z" stroke-dashoffset="0pt" stroke="#000" stroke-width=".6" fill="#782121"/>
   <path id="path5625" opacity=".88" style="color:black" d="m617.53 517.03l-2.37 0.88v3.25l2.37-0.91v-3.22z" stroke-dashoffset="0pt" stroke="#000" stroke-width=".6" fill="#782121"/>
   <path id="path5621" opacity=".88" style="color:black" d="m584.69 529.31l-2.22 0.85v3.25l2.22-0.85v-3.25z" stroke-dashoffset="0pt" stroke="#000" stroke-width=".6" fill="#782121"/>
   <path id="path5619" opacity=".88" style="color:black" d="m580.75 530.78l-2.22 0.84v3.26l2.22-0.85v-3.25z" stroke-dashoffset="0pt" stroke="#000" stroke-width=".6" fill="#782121"/>
   <path id="path5615" opacity=".88" style="color:black" d="m560.22 538.47l-3.1 1.15v3.26l3.1-1.16v-3.25z" stroke-dashoffset="0pt" stroke="#000" stroke-width=".6" fill="#782121"/>
   <path id="rect5557" opacity=".88" style="color:black" d="m555.38 540.28l-2.38 0.91v3.25l2.75-1.03h-0.37v-3.13z" stroke-dashoffset="0pt" stroke="#000" stroke-width=".6" fill="#782121"/>
   <path id="path5712" style="color:black" d="m617 459.94l-3.09 0.84v6.69l3.09-0.85v-6.68z" stroke-dashoffset="0pt" stroke="#000" stroke-width=".6" fill="#782121"/>
   <path id="path5708" style="color:black" d="m605.56 463.09l-2.9 0.82v6.68l2.9-0.81v-6.69z" stroke-dashoffset="0pt" stroke="#000" stroke-width=".6" fill="#782121"/>
   <path id="path5706" style="color:black" d="m600.03 464.62l-3.81 1.07v6.69l3.81-1.07v-6.69z" stroke-dashoffset="0pt" stroke="#000" stroke-width=".6" fill="#782121"/>
   <path id="path5702" style="color:black" d="m587.34 468.16l-2.9 0.81v6.65l2.9-0.81v-6.65z" stroke-dashoffset="0pt" stroke="#000" stroke-width=".6" fill="#782121"/>
   <path id="rect5656" style="color:black" d="m581.81 469.69l-2.9 0.81v6.66l2.9-0.82v-6.65z" stroke-dashoffset="0pt" stroke="#000" stroke-width=".6" fill="#782121"/>
   <g id="g7219" stroke-dashoffset="0pt" stroke="#7c7c7c" stroke-width=".3" fill="#a7a6a2">
    <path id="path7217" style="color:black" d="m735.88 435.47c-0.48 0.01-0.95 0.02-1.41 0.03v7.72h1.41v-7.75z"/>
    <path id="path7215" style="color:black" d="m741.03 435.53v7.44h1.44v-7.41c-0.49-0.02-0.96-0.01-1.44-0.03z"/>
    <path id="path7213" style="color:black" d="m729.56 435.75c-0.48 0.03-0.94 0.09-1.4 0.13v7.34h1.4v-7.47z"/>
    <path id="path7211" style="color:black" d="m746.84 435.88v7.34h1.41v-7.22c-0.47-0.05-0.94-0.09-1.41-0.12z"/>
    <path id="path7209" style="color:black" d="m724.53 436.22c-0.52 0.06-0.96 0.12-1.44 0.19v7.31h1.44v-7.5z"/>
    <path id="path7207" style="color:black" d="m752.38 436.5v7.47h1.43v-7.25c-0.48-0.08-0.96-0.15-1.43-0.22z"/>
    <path id="path7205" style="color:black" d="m718.72 437.09c-0.15 0.03-0.37 0.07-0.5 0.1-0.06 0.01-0.86 0.17-0.94 0.19v7.09h1.44v-7.38z"/>
    <path id="path7203" style="color:black" d="m758.44 437.56v7.16h1.44v-6.88c-0.26-0.05-0.49-0.1-0.76-0.15-0.23-0.05-0.45-0.08-0.68-0.13z"/>
    <path id="path7201" style="color:black" d="m711.66 438.5c-0.28 0.06-1.13 0.25-1.44 0.31v6.66h1.44v-6.97z"/>
    <path id="path7199" style="color:black" d="m764.25 438.88v6.09h1.44v-5.72c-0.47-0.12-0.95-0.25-1.44-0.37z"/>
    <path id="path7197" style="color:black" d="m706.59 439.53c-0.39 0.08-1.01 0.23-1.43 0.31v6.16h1.43v-6.47z"/>
    <path id="path7195" style="color:black" d="m770.06 440.38v4.84h1.44v-4.44c-0.48-0.13-0.93-0.26-1.44-0.4z"/>
    <path id="path7193" style="color:black" d="m701.81 440.5c-0.49 0.1-0.92 0.21-1.43 0.31v6.19h1.43v-6.5z"/>
    <path id="path7191" style="color:black" d="m696.75 441.53c-0.57 0.12-0.85 0.16-1.44 0.28v5.69h1.44v-5.97z"/>
    <path id="path7189" style="color:black" d="m774.88 441.69v4.31h1.4v-3.94c-0.47-0.12-0.91-0.24-1.4-0.37z"/>
    <path id="path7187" style="color:black" d="m691.69 442.56c-0.63 0.13-0.8 0.15-1.44 0.28v5.91h1.44v-6.19z"/>
    <path id="path7185" style="color:black" d="m779.91 442.88v5.12h1.43v-4.88c-0.48-0.06-0.95-0.16-1.43-0.24z"/>
    <path id="path7183" style="color:black" d="m784.47 443.38v7.4h0.5v7.56h1.44v-10.06h-0.5v-4.9c-0.5 0-0.97 0.01-1.44 0z"/>
    <path id="path7181" style="color:black" d="m684.62 444c-0.68 0.14-0.74 0.14-1.43 0.28v5.75h1.43v-6.03z"/>
    <path id="path7179" style="color:black" d="m787.75 444.25v10.06h1.44v-10.06h-1.44z"/>
    <path id="path7177" style="color:black" d="m676.53 445.62c-0.68 0.14-0.73 0.15-1.41 0.29v6.4h1.41v-6.69z"/>
    <path id="path7175" style="color:black" d="m668.72 447.22c-0.66 0.13-0.79 0.15-1.44 0.28v7.31h1.44v-7.59z"/>
    <path id="path7173" style="color:black" d="m660.88 448.78c-0.57 0.12-0.86 0.17-1.41 0.28v7.53h1.41v-7.81z"/>
    <path id="path7171" style="color:black" d="m780.69 449.81v1.66l1.4-0.19v-1.47h-1.4z"/>
    <path id="path7169" style="color:black" d="m653.56 450.28c-0.46 0.09-1.01 0.2-1.44 0.28v7.28h1.44v-7.56z"/>
    <path id="path7167" style="color:black" d="m647.25 451.56c-0.32 0.07-1.15 0.23-1.44 0.28v8.78h1.44v-9.06z"/>
    <path id="path7165" style="color:black" d="m782.09 451.69c-0.46 0.36-0.91 0.72-1.4 1.09v7.1h1.4v-8.19z"/>
    <path id="path7163" style="color:black" d="m642.44 452.53c-0.2 0.04-1.25 0.25-1.41 0.28v8.85h1.41v-9.13z"/>
    <path id="path7161" style="color:black" d="m778.31 454.5c-0.47 0.33-0.94 0.66-1.43 1v6.66h1.43v-7.66z"/>
    <path id="path7159" style="color:black" d="m774.53 457.06c-0.47 0.31-0.95 0.63-1.44 0.94v6.69h1.44v-7.63z"/>
    <path id="path7157" style="color:black" d="m770.75 459.47c-0.47 0.29-0.96 0.58-1.44 0.87v6.35h1.44v-7.22z"/>
    <path id="path7155" style="color:black" d="m767.72 461.31c-0.47 0.28-0.96 0.56-1.44 0.85v6.56h1.44v-7.41z"/>
    <path id="path7153" style="color:black" d="m763.66 463.72c-0.46 0.26-0.94 0.51-1.41 0.78v6.22h1.41v-7z"/>
    <path id="path7151" style="color:black" d="m759.12 466.25c-0.47 0.26-0.95 0.52-1.43 0.78v6.72h1.43v-7.5z"/>
    <path id="path7149" style="color:black" d="m754.84 468.56c-0.47 0.26-0.95 0.53-1.43 0.78v6.44h1.43v-7.22z"/>
    <path id="path7147" style="color:black" d="m749.03 471.66c-0.48 0.25-0.95 0.5-1.44 0.75v6.15h1.44v-6.9z"/>
    <path id="path7145" style="color:black" d="m742.97 474.78l-1.44 0.72v6.34h1.44v-7.06z"/>
    <path id="path7143" style="color:black" d="m736.66 477.91c-0.49 0.23-0.96 0.48-1.44 0.71v6.26h1.44v-6.97z"/>
    <path id="path7141" style="color:black" d="m730.59 480.88c-0.48 0.23-0.95 0.45-1.43 0.68v6.1h1.43v-6.78z"/>
    <path id="path7139" style="color:black" d="m724.53 483.78l-1.44 0.69v6.72h1.44v-7.41z"/>
    <path id="path7137" style="color:black" d="m717.47 487.06c-0.48 0.22-0.97 0.47-1.44 0.69v6.72h1.44v-7.41z"/>
    <path id="path7135" style="color:black" d="m710.38 490.31c-0.48 0.22-0.98 0.45-1.44 0.66v6.78h1.44v-7.44z"/>
    <path id="path7133" style="color:black" d="m703.31 493.44c-0.49 0.22-0.95 0.44-1.43 0.65v6.44h1.43v-7.09z"/>
    <path id="path7131" style="color:black" d="m694.97 497.12c-0.58 0.26-0.86 0.4-1.41 0.63v6.56h1.41v-7.19z"/>
    <path id="path7129" style="color:black" d="m687.41 500.38c-0.72 0.3-0.92 0.4-1.44 0.62v6.34h1.44v-6.96z"/>
    <path id="path7127" style="color:black" d="m679.06 504c-0.48 0.21-0.95 0.42-1.44 0.62v6.79h1.44v-7.41z"/>
    <path id="path7125" style="color:black" d="m670.47 507.69c-0.47 0.2-0.94 0.39-1.41 0.59v6.91h1.41v-7.5z"/>
    <path id="path7123" style="color:black" d="m662.41 511.06l-1.44 0.6v6.81h1.44v-7.41z"/>
    <path id="path7121" style="color:black" d="m652.81 515c-0.48 0.19-0.96 0.37-1.43 0.56v6.69h1.43v-7.25z"/>
    <path id="path7119" style="color:black" d="m643.22 518.81l-1.44 0.57v7.15h1.44v-7.72z"/>
    <path id="path7117" style="color:black" d="m633.09 522.72c-0.46 0.18-0.93 0.35-1.4 0.53v6.84h1.4v-7.37z"/>
    <path id="path7115" style="color:black" d="m622.5 526.72c-0.48 0.18-0.96 0.35-1.44 0.53v7.37h1.44v-7.9z"/>
    <path id="path7113" style="color:black" d="m611.91 530.59c-0.48 0.18-0.96 0.36-1.44 0.53v7.54h1.44v-8.07z"/>
    <path id="path7111" style="color:black" d="m600.28 534.78c-0.48 0.17-0.96 0.33-1.44 0.5v7.69h1.44v-8.19z"/>
    <path id="path7109" style="color:black" d="m588.91 538.75c-0.49 0.17-0.96 0.33-1.44 0.5v8.5h1.44v-9z"/>
    <path id="path7107" style="color:black" d="m576.28 543.06c-0.49 0.17-0.94 0.34-1.44 0.5v7.72h1.44v-8.22z"/>
    <path id="path7105" style="color:black" d="m562.41 547.69c-0.5 0.16-0.95 0.31-1.44 0.47v7.68h1.44v-8.15z"/>
    <path id="path7103" style="color:black" d="m549.25 551.94c-0.48 0.15-0.93 0.28-1.41 0.44v7.5h1.41v-7.94z"/>
    <path id="path7101" style="color:black" d="m533.88 556.75c-0.48 0.14-0.98 0.3-1.44 0.44v8.25h1.44v-8.69z"/>
    <path id="rect6603" style="color:black" d="m518.19 561.5c-0.53 0.16-0.91 0.26-1.41 0.41v7.81h1.41v-8.22z"/>
    <path id="path7283" style="color:black" d="m411.14 517.86c-0.47 0.14-0.98 0.3-1.44 0.44v8.25h1.44v-8.69z"/>
    <path id="path7281" style="color:black" d="m423.26 513.81c-0.47 0.14-0.97 0.29-1.43 0.44v8.25h1.43v-8.69z"/>
   </g>
   <g id="g7323" transform="translate(58.336 14.9)" stroke-dashoffset="0pt" stroke="#7c7c7c" stroke-width=".3" fill="#a7a6a2">
    <path id="path7325" style="color:black" d="m487.66 448.66c-0.47 0.15-0.98 0.3-1.44 0.44v6.48l1.44 0.26v-7.18z"/>
    <path id="path7327" style="color:black" d="m499.53 445.38c-0.47 0.15-0.98 0.3-1.44 0.44v8.25h1.44v-8.69z"/>
    <path id="path7329" style="color:black" d="m511.15 443.11c-0.47 0.14-0.98 0.29-1.44 0.44v8.25h1.44v-8.69z"/>
    <path id="path7331" style="color:black" d="m522.26 440.58c-0.47 0.15-0.98 0.3-1.44 0.44v8.25h1.44v-8.69z"/>
    <path id="path7333" style="color:black" d="m534.13 437.55c-0.47 0.15-0.98 0.3-1.44 0.44v7.74h1.44v-8.18z"/>
    <path id="path7335" style="color:black" d="m545.49 434.96c-0.47 0.15-0.98 0.3-1.44 0.44v7.81h1.44v-8.25z"/>
    <path id="path7337" style="color:black" d="m555.85 432.31c-0.47 0.15-0.98 0.3-1.44 0.44v7.43h1.44v-7.87z"/>
    <path id="path7339" style="color:black" d="m565.19 429.91c-0.47 0.15-0.98 0.3-1.44 0.44v7.56h1.44v-8z"/>
   </g>
   <g id="g7343" transform="translate(50.002 54.548)" stroke-dashoffset="0pt" stroke="#7c7c7c" stroke-width=".3" fill="#a7a6a2">
    <path id="path7351" style="color:black" d="m520.87 440.58c-0.47 0.15-0.98 0.3-1.44 0.44v8.25h1.44v-8.69z"/>
    <path id="path7353" style="color:black" d="m533.05 437.05c-0.47 0.14-0.97 0.29-1.43 0.43v8.25h1.43v-8.68z"/>
    <path id="path7355" style="color:black" d="m544.42 434.52c-0.47 0.15-0.98 0.3-1.44 0.44v7.49c0.48 0 1.06-0.65 1.44 0v-7.93z"/>
    <path id="path7357" style="color:black" d="m554.84 431.49c-0.47 0.15-0.98 0.3-1.44 0.44v7.24h1.44v-7.68z"/>
    <path id="path7359" style="color:black" d="m565.19 428.21c-0.47 0.14-0.98 0.29-1.44 0.44v7.36h1.44v-7.8z"/>
   </g>
   <g id="g7361" transform="translate(105.56 57.326)" stroke-dashoffset="0pt" stroke="#7c7c7c" stroke-width=".3" fill="#a7a6a2">
    <path id="path7363" style="color:black" d="m520.87 440.58c-0.47 0.15-0.98 0.3-1.44 0.44v8.25h1.44v-8.69z"/>
    <path id="path7365" style="color:black" d="m531.03 436.79c-0.47 0.15-0.97 0.3-1.43 0.44v8.25h1.43v-8.69z"/>
    <path id="path7367" style="color:black" d="m541.39 433.26c-0.47 0.14-0.98 0.29-1.44 0.44v8.25h1.44v-8.69z"/>
    <path id="path7369" style="color:black" d="m550.29 430.23c-0.47 0.14-0.98 0.29-1.44 0.44v8.25h1.44v-8.69z"/>
    <path id="path7373" style="color:black" d="m559.38 426.82c-0.47 0.14-0.98 0.3-1.44 0.44v8.25h1.44v-8.69z"/>
    <path id="path7371" style="color:black" d="m542.46 421.71c-0.47 0.14-0.98-0.21-1.44-0.07l0.09 6.56 1.26 0.36 0.09-6.85z"/>
    <path id="path8298" style="color:black" d="m552.28 423.94c-0.47 0.14-0.97-0.21-1.43-0.07l0.08 6.56 1.26 0.36 0.09-6.85z"/>
   </g>
   <g id="g8264" stroke="#999" stroke-width="1px" fill="none">
    <path id="path7375" style="color:black" d="m473.26 452.08l92.43-19.19" stroke-dashoffset="0pt"/>
    <path id="path7377" d="m569.22 435.16l-91.42 19.44"/>
   </g>
   <g id="g8268" transform="translate(58.589 15.152)" stroke="#999" stroke-width="1px" fill="none">
    <path id="path8270" style="color:black" d="m486.14 449.05l78.28-18.94" stroke-dashoffset="0pt"/>
    <path id="path8272" d="m564.42 434.65l-77.78 19.2"/>
   </g>
   <g id="g8274" transform="translate(75.509 47.73)" stroke="#999" stroke-width="1px" fill="none">
    <path id="path8276" style="color:black" d="m488.28 448.92l50.76-13.63" stroke-dashoffset="0pt"/>
    <path id="path8278" d="m539.8 440.34l-51.9 14.14"/>
   </g>
   <g id="g8286" transform="translate(128.04 51.77)" stroke="#999" stroke-width="1px" fill="none">
    <path id="path8288" style="color:black" d="m487.39 449.82l49.15-16.86" stroke-dashoffset="0pt"/>
    <path id="path8290" d="m536.23 438.19l-48.86 17.54"/>
   </g>
   <path id="path8294" style="color:black" d="m640.89 478.08l16.61 3.21" stroke-dashoffset="0pt" stroke="#999" stroke-width="1px" fill="none"/>
   <path id="path8296" style="color:black" d="m657.14 484.86l-16.43-2.85" stroke-dashoffset="0pt" stroke="#999" stroke-width="1px" fill="none"/>
   <path id="path8300" style="color:black" d="m502.57 566.22l14.93-4.21s94.76-25.38 200-74.65c41.37-19.37 56.28-28.71 62.34-32.76 6.06-4.04 9.34-7.82 8.08-9.59s-24.75-7.58-37.63-8.59-28.28 0.51-42.93 3.28c-14.65 2.78-66.67 13.14-66.67 13.14" stroke-dashoffset="0pt" stroke="#999" stroke-width="1px" fill="none"/>
   <path id="path8302" style="color:black" d="m509.57 568.76l7.93-2.71s123.88-37.37 200-74.65c41.03-20.09 56.28-28.71 62.34-32.75 6.06-4.05 9.34-7.83 8.08-9.6s-24.75-7.58-37.63-8.59-28.28 0.51-42.93 3.29c-14.65 2.77-66.67 13.13-66.67 13.13" stroke-dashoffset="0pt" stroke="#999" stroke-width="1px" fill="none"/>
   <path id="path10094" opacity=".21" style="color:black" d="m639.16 414.94c-9.63 3.95-18.9 6.15-32.69 7.34-0.88 6.35-1.81 13.58-2.63 20.94 0.07 0.01 0.15 0.02 0.22 0.03 12.26 1.53 28.81-4.5 36.13-7.5-0.08-1.74-0.14-3.37-0.22-5.06-0.09-1.94-0.19-3.87-0.28-5.75-0.07-1.45-0.15-2.76-0.22-4.16-0.11-2.15-0.2-3.85-0.31-5.84z" fill-rule="evenodd"/>
   <path id="path10099" opacity=".15" style="color:black" d="m790.94 453.34s-3.65 3.31-4.69 4.25c1.07-0.83 1.89-1.5 2.53-2.06 0.05-0.04 0.08-0.05 0.13-0.09 0.56-0.49 1.02-0.92 1.31-1.22 0.28-0.29 0.42-0.46 0.53-0.6 0.05-0.06 0.03-0.05 0.06-0.09 0.11-0.14 0.13-0.19 0.13-0.19zm-4.69 4.25c-0.16 0.12-0.27 0.22-0.44 0.35-0.64 0.49-1.31 1-2.12 1.59-0.92 0.67-1.93 1.38-3.1 2.19-0.1 0.07-0.17 0.11-0.28 0.19-1.01 0.7-2.1 1.46-3.31 2.28-0.33 0.22-0.59 0.39-0.94 0.62-1.07 0.72-2.17 1.44-3.4 2.25-0.64 0.42-1.19 0.78-1.88 1.22-1.06 0.69-2.1 1.34-3.28 2.1-1.04 0.65-1.96 1.25-3.09 1.96-0.98 0.62-1.89 1.19-2.94 1.85-0.52 0.32-1.05 0.66-1.59 1-1.71 1.05-3.49 2.13-5.38 3.28l-0.03 0.03c-2.13 1.3-4.27 2.57-6.66 4-3.24 1.95-6.65 3.98-10.4 6.19-0.81 0.47-1.64 0.95-2.5 1.43-0.35 0.2-0.68 0.37-1.03 0.57-1.21 0.66-2.52 1.35-3.82 2.03l-0.03 0.03c-22.67 32.26-44.07 43.64-127.97 76.75-65.66 25.92-299.64 76.96-376.62 82.28l27.09 26.81s0.55 0.05 1.69 0.07 2.87 0.01 5.22-0.04c2.34-0.04 5.29-0.14 8.9-0.34 5.43-0.3 12.34-0.83 20.82-1.72 5.65-0.59 12-1.34 19.09-2.31 17.73-2.41 40.07-6.13 67.53-11.81 1.36-0.28 2.77-0.59 4.19-0.91 5.72-1.28 11.9-2.85 18.44-4.65 4.9-1.36 10.02-2.83 15.31-4.44 7.05-2.15 14.42-4.53 22.03-7.06 7.61-2.54 15.45-5.25 23.47-8.1 8.01-2.85 16.2-5.85 24.47-8.94 20.66-7.71 41.89-16.06 62.5-24.4 4.12-1.67 8.25-3.34 12.31-5 8.13-3.33 16.09-6.65 23.88-9.91 7.78-3.25 15.37-6.46 22.65-9.56 21.85-9.31 41.12-17.76 55.78-24.31 14.66-6.56 24.72-11.21 28.13-12.91 1.13-0.57 2.3-1.23 3.53-1.97 0.01 0 0.02 0.01 0.03 0 6.15-3.69 13.35-9.39 20.59-15.62 1.45-1.25 2.94-2.53 4.38-3.82 2.89-2.56 5.74-5.15 8.5-7.72 1.38-1.28 2.74-2.56 4.06-3.81 5.3-5 10.07-9.64 13.78-13.19 1.86-1.77 3.46-3.26 4.72-4.4 5.79-5.21 15.79-14.26 25-22.6 6.83-6.18 9.9-8.97 12.72-11.53z" fill-rule="evenodd"/>
   <g id="g11035" fill-rule="evenodd" transform="translate(672.26 -5.0508)">
    <path id="path11023" d="m-322.74 631.13s-3.29 23.23-2.02 25.76c1.26 2.52 4.54 3.03 4.54 3.03l13.89-0.51 12.63-26.51-29.04-1.77z" stroke="#000" stroke-width=".7" fill="#545454"/>
    <path id="path11027" opacity=".35" style="color:black" d="m-300.16 632.5l-2.34 18.84 8.81-18.43-6.47-0.41z" fill="#fff"/>
    <path id="path11025" opacity=".35" style="color:black" d="m-322.75 631.12c0 0.01-3.26 23.23-2 25.76 1.26 2.52 4.53 3.03 4.53 3.03l2.38-0.1 1.46-28.31-6.37-0.38z" fill="#fff"/>
   </g>
   <g id="g11018" fill-rule="evenodd" transform="translate(107.58 1.0102)">
    <path id="path10107" d="m359.59 626.34c-0.09 1.29 0.26 2.79-0.15 4-0.4 2.83-0.62 5.66-1.06 8.47-0.79 3.19-2.96 5.78-4.16 8.78-0.52 0.99-0.13 3.75-1.28 3.75-0.84-1.89-0.69-4.03-0.66-6.06-3.45-3.2-6.89-6.39-10.34-9.59-1.24 1.28-2.06 2.9-1.85 4.72 0.03 0.64-0.18 1.55 0.07 2.09 3.07 3.22 6.01 6.62 9.5 9.41 1.98 0.62 2.24 3.6 4.59 3.53 3.8 0.57 7.58 1.62 11.44 1.68 4.29-0.93 8.6-2.3 12.22-4.87 2.58-2 3.87-5.54 3.43-8.75-4.09 2.4-8.12 4.98-12.46 6.91-1.49 0.64-3.09 0.59-3.29-1.38-0.59-3.84-0.07-7.74 0.07-11.59 0.17-2.55 0.33-5.11 0.31-7.66 0.04-0.88 0.35-1.94 0.37-2.9l-6.75-0.54z" transform="translate(-107.58 -1.0102)" stroke="#000" stroke-width=".2" fill="#bdc1c5"/>
    <path id="path10995" opacity=".35" style="color:black" d="m359.56 626.34c0 0.08-0.01 0.15 0 0.22-0.01 1.39 0.23 2.83-0.18 4.19-0.43 2.88-0.56 5.81-1.19 8.66-0.93 3.15-3.19 5.71-4.16 8.84-0.03 0.7-0.41 2.11-0.25 2.41 6.5-5.23 7.73-13.27 9.22-21.04 0.17-0.99 0.32-1.98 0.38-3l-3.82-0.28z" transform="translate(-107.58 -1.0102)"/>
    <path id="path10997" opacity=".35" style="color:black" d="m365.5 626.78c-1.26 7.76-7.67 28.28 3.31 26.16 3.57-3.44 12.56-3.27 12.53-9.44-4.4 2.55-8.67 5.41-13.43 7.25-1.18 0.4-2.17-0.68-2.38-1.75-0.28-1.2-0.1-2.46-0.19-3.69-0.02-5.28 0.68-10.53 0.66-15.81 0.08-0.83 0.33-1.75 0.34-2.62l-0.84-0.1zm-15.72 19.63c-0.92 1.44-1.05 3.27-0.78 4.93 0.95 0.76 2.09 1.29 2.69 2.44 0.62 1.03 1.67 1.8 2.9 1.72 3.69 0.58 7.35 1.56 11.1 1.62 4.41-0.97 8.87-2.37 12.53-5.12 5.33-8.71 1.56-3.05-4.31 1.09-6.43 4.68-14.9 2.37-21.63-0.37-1.99-1.47-2.26-4.02-2.5-6.31z" transform="translate(-107.58 -1.0102)"/>
   </g>
   <path id="path11056" opacity=".11" style="color:black" d="m726.53 535.66c-10 6.6-62.51 41.21-68.94 43.96-7.07 3.04-196.97 96.98-230.31 106.07-16.21 4.42-35.77 4.31-57.16 2.9-49.09 11.47-81.87 13.7-93.53 14.13 2.31 3.2 4.01 6.24 4.63 8.87 0.13 0.07 0.62 0.35 0.62 0.35s28.27 3.03 36.35 3.03 70.72-6.06 70.72-6.06l-33.6 21.21s-10.61 4.31-36.87 14.66c-26.27 10.36-38.87 5.31-42.41-3.28-3.53-8.59 0.74-12.14 5.03-20.22 1.95-3.66 1.51-5.2 0.1-5.78-0.27 0.75-0.7 1.42-1.35 2-10.1 9.09-16.15 20.7-10.09 28.78s1.01 26.79 89.9-11.09c90.22-38.45 287.88-146.5 287.88-146.5s67.68-39.39 74.75-44.44c1.64-1.17 3.06-4.39 4.28-8.59z" fill-rule="evenodd"/>
   <path id="path11103" opacity=".08" style="color:black" d="m306.58 737.7a11.869 10.607 0 1 1 -23.74 0 11.869 10.607 0 1 1 23.74 0z" fill-rule="evenodd" transform="matrix(1.1489 0 0 1 -45.156 -2.0203)" fill="#fff"/>
   <g id="g11129" fill-rule="evenodd" transform="translate(665.69 -7.0711)">
    <path id="path11131" d="m-484.5 574.91c-0.26 0.03-0.49 0.17-0.63 0.39-0.14 0.21-0.19 0.48-0.12 0.73l10.63 46.97c0.05 0.33 0.28 0.6 0.6 0.71 0.32 0.1 0.67 0.02 0.91-0.21 0.24-0.24 0.33-0.59 0.23-0.91l-10.62-46.97c-0.09-0.46-0.53-0.78-1-0.71z" stroke="#949494" stroke-linecap="round" stroke-width=".6" fill="#9ea09f"/>
    <path id="path11133" d="m-483.36 578.35l3.54 18.43s5.55-4.29 8.84-4.29c3.28 0 9.85 0.51 11.87-0.5s5.55-5.56 5.55-5.56c-2.05-5.25-4.07-10.81-2.78-16.42 0 0 0 3.03-6.81 4.55-6.82 1.52-8.09 0.25-11.12 1.26s-8.84 2.78-9.09 2.53z" stroke="#000" stroke-width="1px" fill="#fff"/>
    <path id="path11135" opacity=".35" style="color:black" d="m-456.34 570c-0.04 0.15-0.07 0.29-0.1 0.44 0.08-0.27 0.1-0.44 0.1-0.44zm-0.1 0.5c-0.26 0.75-1.17 2.22-4.25 3.34-0.29 8.26 1.02 13.6 2.69 17.38 1.99-1.64 4.44-4.78 4.44-4.78-1.99-5.1-3.95-10.5-2.88-15.94z"/>
    <path id="path11137" opacity=".35" style="color:black" d="m-475.59 576.25c-3.15 1.01-7.53 2.32-7.75 2.09l3.53 18.44s5.56-4.28 8.84-4.28h0.06c-4.08-4.79-3.15-11.21-4.68-16.25z"/>
   </g>
   <g id="g11123" fill-rule="evenodd" transform="matrix(.92461 .38090 -.38090 .92461 1437.4 49.711)">
    <path id="path11117" d="m-481.71 581.68c-0.26 0.03-0.49 0.17-0.63 0.39-0.14 0.21-0.19 0.48-0.12 0.73l7.84 40.2c0.05 0.33 0.28 0.6 0.6 0.71 0.32 0.1 0.67 0.02 0.91-0.21 0.24-0.24 0.33-0.59 0.23-0.91l-7.83-40.2c-0.39 0.93-0.53-0.78-1-0.71z" stroke="#949494" stroke-linecap="round" stroke-width=".6" fill="#9ea09f"/>
    <g id="g11139" transform="translate(2.7208 6.6044)">
     <path id="path11105" d="m-484.5 578.67l2.56 13.34s4.02-3.11 6.4-3.11 7.13 0.37 8.59-0.36 4.02-4.02 4.02-4.02c-1.48-3.8-2.95-7.83-2.01-11.88 0 0 0 2.19-4.93 3.29-4.94 1.09-5.85 0.18-8.05 0.91-2.19 0.73-6.39 2.01-6.58 1.83z" stroke="#000" stroke-width=".72377px" fill="#fff"/>
     <path id="path11107" opacity=".35" style="color:black" d="m-464.94 572.63c-0.03 0.1-0.05 0.21-0.07 0.31 0.06-0.19 0.07-0.31 0.07-0.31zm-0.07 0.36c-0.19 0.54-0.85 1.6-3.08 2.42-0.21 5.98 0.74 9.84 1.95 12.57 1.44-1.18 3.21-3.46 3.21-3.46-1.44-3.68-2.86-7.6-2.08-11.53z"/>
     <path id="path11109" opacity=".35" style="color:black" d="m-478.88 577.15c-2.27 0.73-5.45 1.67-5.61 1.51l2.56 13.35s4.02-3.1 6.4-3.1h0.05c-2.96-3.46-2.28-8.11-3.4-11.76z"/>
    </g>
   </g>
   <text id="text2611" xml:space="preserve" transform="scale(.97664 1.0239)" font-size="144.48px" y="462.66473" x="137.41397" font-family="Bitstream Vera Sans" fill="#000000"><tspan id="tspan2613" y="462.66473" x="137.41397" fill="#000080">IMO</tspan></text>
   <text id="text2615" xml:space="preserve" transform="scale(.97664 1.0239)" font-size="144.48px" y="761.09692" x="556.74567" font-family="Bitstream Vera Sans" fill="#000000"><tspan id="tspan2617" y="761.09692" x="556.74567" fill="#000080">info</tspan></text>
  </g>
 </g>
</svg>
